<svg viewBox="0 0 20 18" xmlns="http://www.w3.org/2000/svg"><path d="M11.389 17.206v-3.228a.807.807 0 0 1 .819-.794c1.615 0 2.493-1.6 2.615-4.77h-2.614a.807.807 0 0 1-.819-.794V.796a.807.807 0 0 1 .819-.794h6.972A.807.807 0 0 1 20 .796v6.822a16.971 16.971 0 0 1-.469 4.14 9.8 9.8 0 0 1-1.455 3.276 7.026 7.026 0 0 1-2.473 2.188 7.225 7.225 0 0 1-3.4.778.807.807 0 0 1-.814-.794ZM.82 13.18a.807.807 0 0 0-.819.794v3.232A.807.807 0 0 0 .82 18a7.224 7.224 0 0 0 3.395-.778 7.027 7.027 0 0 0 2.473-2.188 9.8 9.8 0 0 0 1.455-3.277 16.991 16.991 0 0 0 .469-4.139V.794A.807.807 0 0 0 7.793 0H.821a.807.807 0 0 0-.819.794v6.824a.807.807 0 0 0 .819.794h2.578c-.122 3.166-.99 4.766-2.579 4.766Z" fill="#da4036" data-follow-fill="#da4036"/></svg>