<svg viewBox="0 0 20 18" xmlns="http://www.w3.org/2000/svg"><path d="M8.611.794v3.228a.807.807 0 0 1-.819.794c-1.615 0-2.493 1.6-2.615 4.77h2.614a.807.807 0 0 1 .819.794v6.824a.807.807 0 0 1-.819.794H.819A.807.807 0 0 1 0 17.204v-6.822a16.971 16.971 0 0 1 .469-4.14 9.8 9.8 0 0 1 1.455-3.276A7.026 7.026 0 0 1 4.397.778 7.225 7.225 0 0 1 7.797 0a.807.807 0 0 1 .814.794ZM19.18 4.82a.807.807 0 0 0 .819-.794V.794A.807.807 0 0 0 19.18 0a7.224 7.224 0 0 0-3.395.778 7.027 7.027 0 0 0-2.473 2.188 9.8 9.8 0 0 0-1.455 3.277 16.991 16.991 0 0 0-.469 4.139v6.824a.807.807 0 0 0 .819.794h6.972a.807.807 0 0 0 .819-.794v-6.824a.807.807 0 0 0-.819-.794h-2.578c.122-3.166.99-4.766 2.579-4.766Z" fill="#da4036" data-follow-fill="#da4036"/></svg>