<svg xmlns="http://www.w3.org/2000/svg" width="29.488" height="28.308" viewBox="0 0 29.488 28.308"><defs><style>.a{fill:#fad05e;}</style></defs><g transform="translate(0 0.001)"><path class="a" d="M28.116,6.782m-6.782,0A6.782,6.782,0,1,0,28.116,0,6.782,6.782,0,0,0,21.334,6.782Z" transform="translate(-20.744 0)"/><path class="a" d="M624.565,283.231m-5.9,0a5.9,5.9,0,1,0,5.9-5.9A5.9,5.9,0,0,0,618.667,283.231Z" transform="translate(-601.564 -269.667)"/><path class="a" d="M7.372,554.667A7.372,7.372,0,0,0,0,562.039v5.6H14.744v-5.6a7.372,7.372,0,0,0-7.372-7.372ZM23,560.565a6.487,6.487,0,0,0-6.487,6.487v.59H29.488v-.59A6.487,6.487,0,0,0,23,560.565Z" transform="translate(0 -539.334)"/></g></svg>